# xmcd
# 
# Track frame offsets:
#     150
#     12222
#     25190
#     37565
#     50880
#     62502
#     75970
#     89425
#     101395
#     113735
#     127427
#     140930
# 
# Disc length: 2031
# 
# Revision: 2
# Processed by: cddbd v1.5.2PL0 Copyright (c) Steve Scherf et al.
# Submitted via: fre:ac v1.0.31
# 
DISCID=9807ed0c
DTITLE=The Temptations - The Temptations Sing Smokey (1998 Reissue)
DYEAR=1965
DGENRE=Soul
TTITLE0=The Way You Do the Things You Do
TTITLE1=Baby, Baby I Need You
TTITLE2=My Girl
TTITLE3=What Love Has Joined Together
TTITLE4=You'll Lose a Precious Love
TTITLE5=It's Growing
TTITLE6=Who's Lovin' You
TTITLE7=What's So Good About Good Bye
TTITLE8=You Beat Me to the Punch
TTITLE9=Way Over There
TTITLE10=You've Really Got a Hold on Me
TTITLE11=(You Can) Depend on Me
EXTD=
EXTT0=
EXTT1=
EXTT2=
EXTT3=
EXTT4=
EXTT5=
EXTT6=
EXTT7=
EXTT8=
EXTT9=
EXTT10=
EXTT11=
PLAYORDER=
